<?xml version="1.0" encoding="iso-8859-1"?>
<!-- Uploaded to: SVG Repo, www.svgrepo.com, Generator: SVG Repo Mixer Tools -->
<svg height="800px" width="800px" version="1.1" id="Layer_1" xmlns="http://www.w3.org/2000/svg" xmlns:xlink="http://www.w3.org/1999/xlink" 
	 viewBox="0 0 504.747 504.747" xml:space="preserve">
<g transform="translate(1 1)">
	<path style="fill:#AAB1BA;" d="M191.64,465.346v34.133H55.107v-34.133h51.2h68.267H191.64z M447.64,465.346v34.133H311.107v-34.133
		h17.067h68.267H447.64z"/>
	<path style="fill:#FFD0A1;" d="M446.787,301.506L446.787,301.506l0.853-117.76c0-14.507,11.093-25.6,25.6-25.6
		c14.507,0,25.6,11.093,25.6,25.6v128c0,28.16-17.067,42.667-17.067,42.667l-76.8,76.8c0,0-8.533,8.533-8.533,34.133h-68.267v-76.8
		c0-28.16,17.067-42.667,17.067-42.667l59.733-59.733c10.24-10.24,25.6-11.093,34.987-0.853
		C445.08,289.56,446.787,295.533,446.787,301.506z M55.96,301.506c0-5.973,2.56-11.947,6.827-17.067
		c10.24-10.24,25.6-8.533,34.987,0.853l59.733,59.733c0,0,17.067,14.507,17.067,42.667v76.8h-68.267
		c0-25.6-8.533-34.133-8.533-34.133l-76.8-76.8c0,0-17.067-14.507-17.067-42.667v-128c0-14.507,11.093-25.6,25.6-25.6
		s25.6,11.093,25.6,25.6L55.96,301.506L55.96,301.506z"/>
	<path style="fill:#50DD8E;" d="M251.373,192.28l-34.133-34.133c0,0-25.6-25.6-25.6-59.733s25.6-59.733,25.6-59.733l34.133-34.133
		l34.133,34.133c0,0,25.6,25.6,25.6,59.733s-25.6,59.733-25.6,59.733L251.373,192.28z M370.84,209.346v25.6
		c0,0,0,25.6-17.067,42.667c-17.067,17.067-42.667,17.067-42.667,17.067h-25.6v-25.6c0,0,0-25.6,17.067-42.667
		c17.067-17.067,42.667-17.067,42.667-17.067H370.84z M217.24,269.08v25.6h-25.6c0,0-25.6,0-42.667-17.067
		c-17.067-17.067-17.067-42.667-17.067-42.667v-25.6h25.6c0,0,25.6,0,42.667,17.067S217.24,269.08,217.24,269.08z"/>
</g>
<path style="fill:#51565F;" d="M448.64,504.747c-2.56,0-4.267-1.707-4.267-4.267v-29.867h-128v29.867
	c0,2.56-1.707,4.267-4.267,4.267s-4.267-1.707-4.267-4.267v-34.133c0-2.56,1.707-4.267,4.267-4.267h12.8v-72.533
	c0-29.867,17.92-45.227,18.773-46.08l59.733-59.733c5.973-5.973,12.8-8.533,20.48-9.387c7.68,0,15.36,2.56,20.48,8.533
	c5.973,5.973,8.533,12.8,8.533,20.48c0,7.68-3.413,14.507-9.387,20.48l-42.667,42.667c-1.707,1.707-4.267,1.707-5.973,0
	c-1.707-1.707-1.707-4.267,0-5.973l42.667-42.667c4.267-4.267,6.827-9.387,6.827-14.507s-1.707-10.24-5.973-14.507
	c-4.267-4.267-9.387-5.973-14.507-5.973c-5.12,0-10.24,2.56-14.507,6.827l-59.733,59.733c0,0-16.213,14.507-16.213,39.253v72.533
	h115.2c2.56,0,4.267,1.707,4.267,4.267v34.133C452.907,503.04,451.2,504.747,448.64,504.747z M192.64,504.747
	c-2.56,0-4.267-1.707-4.267-4.267v-29.867h-128v29.867c0,2.56-1.707,4.267-4.267,4.267s-4.267-1.707-4.267-4.267v-34.133
	c0-2.56,1.707-4.267,4.267-4.267h115.2v-72.533c0-25.6-15.36-39.253-15.36-39.253L96.213,290.56
	c-4.267-4.267-9.387-6.827-14.507-6.827c-5.12,0-10.24,1.707-14.507,5.973s-5.973,9.387-5.973,14.507
	c0,5.12,2.56,10.24,6.827,14.507l42.667,42.667c1.707,1.707,1.707,4.267,0,5.973c-1.707,1.707-4.267,1.707-5.973,0l-42.667-42.667
	c-5.973-5.973-8.533-12.8-9.387-20.48c0-7.68,2.56-15.36,8.533-20.48c5.973-5.973,12.8-8.533,20.48-8.533s14.507,3.413,20.48,9.387
	l59.733,59.733c0.853,0.853,17.92,16.213,17.92,46.08v72.533h12.8c2.56,0,4.267,1.707,4.267,4.267v34.133
	C196.907,503.04,195.2,504.747,192.64,504.747z M405.973,436.48c-0.853,0-2.56,0-3.413-0.853c-1.707-1.707-1.707-4.267,0-5.973
	l76.8-76.8c0.853-0.853,16.213-13.653,16.213-39.253v-128c0-11.947-9.387-21.333-21.333-21.333s-21.333,9.387-21.333,21.333v67.413
	c0,2.56-1.707,4.267-4.267,4.267s-4.267-1.707-4.267-4.267v-68.266c0-16.213,13.653-29.867,29.867-29.867
	s29.867,13.653,29.867,29.867v128c0,29.867-17.92,45.227-18.773,46.08l-76.8,76.8C408.533,436.48,406.827,436.48,405.973,436.48z
	 M98.773,436.48c-0.853,0-2.56,0-3.413-0.853l-76.8-76.8c-0.853,0-17.92-15.36-17.92-46.08v-128
	c0-16.213,13.653-29.867,29.867-29.867s29.867,13.653,29.867,29.867v67.413c0,2.56-1.707,4.267-4.267,4.267
	s-4.267-1.707-4.267-4.267v-67.413c0-11.947-9.387-21.333-21.333-21.333S9.173,172.8,9.173,184.746v128
	c0,25.6,14.507,39.253,15.36,39.253l76.8,76.8c1.707,1.707,1.707,4.267,0,5.973C101.333,436.48,99.627,436.48,98.773,436.48z
	 M252.373,368.213c-2.56,0-4.267-1.707-4.267-4.267v-168.96l-33.28-33.28c-0.853-0.853-26.453-27.307-26.453-63.147
	s25.6-61.44,26.453-63.147L248.96,1.28c1.707-1.707,4.267-1.707,5.973,0l34.133,34.133c0.853,0.853,26.453,27.307,26.453,63.147
	s-25.6,61.44-26.453,63.147l-33.28,33.28v168.96C256.64,366.506,254.933,368.213,252.373,368.213z M252.373,11.52l-30.72,30.72
	c0,0-24.747,24.747-24.747,56.32s23.893,56.32,24.747,56.32l26.453,26.453V56.746c0-2.56,1.707-4.267,4.267-4.267
	s4.267,1.707,4.267,4.267V183.04l26.453-26.453c0,0,24.747-24.747,24.747-56.32s-23.893-56.32-24.747-56.32L252.373,11.52z
	 M312.107,299.947h-25.6c-2.56,0-4.267-1.707-4.267-4.267v-25.6c0-0.853,0-27.307,17.92-46.08s44.373-17.92,46.08-17.92h25.6
	c2.56,0,4.267,1.707,4.267,4.267v25.6c0,0.853,0,27.307-17.92,46.08C340.266,300.8,312.96,299.947,312.107,299.947z
	 M290.773,291.413h21.333c0,0,23.893,0,39.253-16.213c15.36-15.36,16.213-39.253,16.213-39.253v-21.333H346.24
	c0,0-23.893,0-39.253,16.213c-15.36,15.36-16.213,39.253-16.213,39.253V291.413z M218.24,299.947h-25.6
	c-0.853,0-27.307,0-46.08-17.92c-18.773-17.92-17.92-44.373-17.92-46.08v-25.6c0-2.56,1.707-4.267,4.267-4.267h25.6
	c0.853,0,27.307,0,46.08,17.92s17.92,44.373,17.92,46.08v25.6C222.507,298.24,220.8,299.947,218.24,299.947z M137.173,214.613
	v21.333c0,0,0,23.893,16.213,39.253c15.36,15.36,39.253,16.213,39.253,16.213h21.333V270.08c0,0,0-23.893-16.213-39.253
	c-15.36-15.36-39.253-16.213-39.253-16.213H137.173z"/>
</svg>