<?xml version="1.0" encoding="iso-8859-1"?>
<!-- Uploaded to: SVG Repo, www.svgrepo.com, Generator: SVG Repo Mixer Tools -->
<svg height="800px" width="800px" version="1.1" id="Layer_1" xmlns="http://www.w3.org/2000/svg" xmlns:xlink="http://www.w3.org/1999/xlink" 
	 viewBox="0 0 504.32 504.32" xml:space="preserve">
<g transform="translate(10 1)">
	<path style="fill:#E4F2DE;" d="M474.267,140.653c9.387,0,17.067,7.68,17.067,17.067s-7.68,17.067-17.067,17.067H406
		c-9.387,0-17.067-7.68-17.067-17.067s7.68-17.067,17.067-17.067c3.413,0,6.827,0.853,9.387,2.56
		c2.56-11.093,12.8-19.627,24.747-19.627c11.947,0,22.187,8.533,24.747,19.627C467.44,141.507,470.853,140.653,474.267,140.653z
		 M148.293,89.453c-9.387,0-17.067-7.68-17.067-17.067s7.68-17.067,17.067-17.067c3.413,0,6.827,0.853,9.387,2.56
		c2.56-11.093,12.8-19.627,24.747-19.627c11.093,0,17.92,2.56,25.6,18.773c0,0,4.267-5.12,15.36-3.413h0.853l-1.707,36.693h-5.12
		h-69.12V89.453z"/>
	<path style="fill:#50DD8E;" d="M407.707,275.48c8.533,5.12,11.093,15.36,5.973,23.04c-5.12,8.533-15.36,11.093-23.04,5.973
		l-127.147-65.707l-18.773-10.24l-18.773,10.24l-128,65.707c-7.68,4.267-18.773,1.707-23.04-5.973
		c-5.12-8.533-1.707-18.773,5.973-23.04l139.093-89.6l4.267-96.427l1.707-36.693l1.707-32.427c0-9.387,7.68-17.067,17.067-17.067
		s17.067,7.68,17.067,17.067l7.68,164.693L407.707,275.48z"/>
	<path style="fill:#AAB1BA;" d="M269.467,499.053h-51.2c8.533-102.4,8.533-230.4,8.533-230.4v-25.6l-1.707-4.267l18.773-10.24
		l18.773,10.24l-1.707,4.267v25.6C260.933,268.653,260.933,396.653,269.467,499.053"/>
</g>
<path style="fill:#51565F;" d="M277.76,504.32L277.76,504.32h-51.2l0,0h-68.267c-2.56,0-4.267-1.707-4.267-4.267
	c0-2.56,1.707-4.267,4.267-4.267h64l8.533-226.133c0-2.56,1.707-4.267,4.267-4.267s4.267,1.707,4.267,4.267
	c0,0.853,0,125.44-8.533,226.133h41.813c-7.68-100.693-8.533-225.28-8.533-226.133c0-2.56,1.707-4.267,4.267-4.267
	s4.267,1.707,4.267,4.267l8.533,230.4l0,0l0,0l0,0v0.853l0,0l0,0l0,0l0,0c0,0.853-0.853,1.707-0.853,1.707l0,0l0,0
	c0,0-0.853,0.853-1.707,0.853C278.613,504.32,278.613,504.32,277.76,504.32L277.76,504.32L277.76,504.32L277.76,504.32z
	 M499.627,504.32H363.093c-2.56,0-4.267-1.707-4.267-4.267c0-2.56,1.707-4.267,4.267-4.267h136.533c2.56,0,4.267,1.707,4.267,4.267
	C503.893,502.613,502.187,504.32,499.627,504.32z M328.96,504.32h-17.067c-2.56,0-4.267-1.707-4.267-4.267
	c0-2.56,1.707-4.267,4.267-4.267h17.067c2.56,0,4.267,1.707,4.267,4.267C333.227,502.613,331.52,504.32,328.96,504.32z
	 M124.16,504.32H4.693c-2.56,0-4.267-1.707-4.267-4.267c0-2.56,1.707-4.267,4.267-4.267H124.16c2.56,0,4.267,1.707,4.267,4.267
	C128.427,502.613,126.72,504.32,124.16,504.32z M96.853,312.32c-7.68,0-14.507-3.413-18.773-11.093
	c-5.973-10.24-2.56-23.04,7.68-29.013l136.533-87.893l7.68-162.987C229.973,9.387,239.36,0,251.306,0s21.333,9.387,21.333,21.333
	l7.68,162.133l136.533,87.893c10.24,5.973,13.653,18.773,7.68,29.013c-5.973,10.24-18.773,13.653-29.013,7.68l-144.213-74.24
	l-145.067,74.24C104.533,311.466,100.267,312.32,96.853,312.32z M252.16,9.386c-6.827,0-12.8,5.973-12.8,12.8l-7.68,164.693
	c0,1.707-0.853,2.56-1.707,3.413l-139.093,89.6c-5.973,3.413-8.533,11.093-5.12,17.92c1.707,2.56,4.267,5.12,7.68,5.973
	c3.413,0.853,6.827,0.853,9.387-0.853L249.6,226.986c0.853-0.853,2.56-0.853,4.267,0l146.773,75.947
	c5.973,3.413,14.507,1.707,17.92-4.267c3.413-5.973,1.707-13.653-4.267-17.067l0,0L275.2,192c-0.853-0.853-1.707-1.707-1.707-3.413
	l-7.68-164.693C264.96,15.36,258.987,9.386,252.16,9.386z M252.16,214.186c-6.827,0-12.8-5.973-12.8-12.8
	c0-6.827,5.973-12.8,12.8-12.8s12.8,5.973,12.8,12.8C264.96,208.213,258.987,214.186,252.16,214.186z M252.16,197.12
	c-2.56,0-4.267,1.707-4.267,4.267c0,2.56,1.707,4.267,4.267,4.267s4.267-1.707,4.267-4.267
	C256.427,198.827,254.72,197.12,252.16,197.12z M482.56,180.053h-68.267c-11.947,0-21.333-9.387-21.333-21.333
	c0-11.947,9.387-21.333,21.333-21.333c2.56,0,4.267,0,6.827,0.853c4.267-11.093,15.36-17.92,27.307-17.92
	c11.947,0,23.04,7.68,27.307,17.92c2.56-0.853,4.267-0.853,6.827-0.853c11.947,0,21.333,9.387,21.333,21.333
	C503.893,170.666,494.507,180.053,482.56,180.053z M414.293,145.92c-6.827,0-12.8,5.973-12.8,12.8c0,6.827,5.973,12.8,12.8,12.8
	h68.267c6.827,0,12.8-5.973,12.8-12.8c0-6.827-5.973-12.8-12.8-12.8c-2.56,0-5.12,0.853-6.827,1.707
	c-0.853,0.853-2.56,0.853-4.267,0c-1.707-0.853-2.56-1.707-2.56-3.413c-2.56-9.387-11.093-16.213-20.48-16.213
	c-9.387,0-18.773,6.827-20.48,16.213c0,1.707-0.853,2.56-2.56,3.413c-1.707,0.853-2.56,0-4.267,0
	C419.413,146.773,416.853,145.92,414.293,145.92z M200.96,94.72h-42.667c-11.947,0-21.333-9.387-21.333-21.333
	s9.387-21.333,21.333-21.333c2.56,0,4.267,0,6.827,0.853c4.267-11.093,15.36-17.92,27.307-17.92c5.12,0,11.093,1.707,15.36,4.267
	c1.707,0.853,2.56,4.267,1.707,5.973c-0.853,1.707-4.267,2.56-5.973,1.707c-3.413-1.707-6.827-3.413-11.093-3.413
	c-10.24,0-18.773,6.827-20.48,16.213c0,1.707-0.853,2.56-2.56,3.413c-0.853,0.853-2.56,0-4.267,0
	c-1.707-1.707-4.267-1.707-6.827-1.707c-6.827,0-12.8,5.973-12.8,12.8c0,6.827,5.973,12.8,12.8,12.8h42.667
	c2.56,0,4.267,1.707,4.267,4.267C205.227,93.866,203.52,94.72,200.96,94.72z M397.227,34.986c-2.56,0-4.267-1.707-4.267-4.267l0,0
	c0-1.707-0.853-12.8-12.8-12.8c-5.12,0-11.947,5.12-13.653,7.68c-1.707,1.707-4.267,1.707-5.973,0c-1.707-1.707-1.707-4.267,0-5.973
	c0.853-0.853,10.24-9.387,20.48-9.387c8.533,0,13.653,3.413,17.067,7.68c3.413-4.267,8.533-7.68,17.067-7.68
	c10.24,0,18.773,8.533,20.48,9.387c1.707,1.707,1.707,4.267,0,5.973c-1.707,1.707-4.267,1.707-5.973,0
	c-1.707-1.707-8.533-7.68-13.653-7.68c-11.947,0-12.8,11.093-12.8,12.8C401.493,33.28,399.787,34.986,397.227,34.986z"/>
</svg>